<?xml version="1.0" encoding="UTF-8" standalone="no"?>
<!DOCTYPE svg PUBLIC "-//W3C//DTD SVG 20010904//EN" "http://www.w3.org/TR/2001/REC-SVG-20010904/DTD/svg10.dtd">
<svg version="1.0" xmlns="http://www.w3.org/2000/svg" width="900.000000pt" height="129.000000pt" viewBox="0 0 900.000000 129.000000" preserveAspectRatio="xMidYMid meet">
<metadata>
Created by potrace 1.10, written by Peter Selinger 2001-2011
</metadata>
<g transform="translate(0.000000,129.000000) scale(0.100000,-0.100000)" fill="#E5E7EB" stroke="none">
<path d="M144 1118 c-7 -12 5 -30 69 -102 l58 -66 144 0 c91 0 146 -4 150 -11 4 -6 6 -101 6 -212 -1 -152 2 -207 11 -220 11 -14 32 -19 101 -22 53 -3 96 0 112 7 l25 11 0 212 c0 164 3 215 13 223 8 7 73 13 163 14 l149 3 2 65 c4 108 49 99 -511 102 -268 2 -490 0 -492 -4z"/>
<path d="M8165 1121 l-190 -6 0 -75 0 -75 280 -6 c154 -3 281 -7 283 -8 6 -4 1 -71 -7 -75 -5 -3 -116 -8 -248 -10 -131 -3 -255 -5 -276 -5 l-37 -1 2 -182 3 -183 100 -3 c55 -1 107 2 115 8 11 7 16 35 20 102 l5 93 30 3 c43 4 53 -1 265 -156 l65 -47 150 0 c121 0 150 3 150 14 0 7 -43 43 -96 80 -128 89 -156 111 -144 117 129 62 145 83 145 196 0 115 -37 179 -120 207 -43 15 -241 19 -495 12z"/>
<path d="M1247 1113 c-12 -11 -8 -138 5 -151 9 -9 106 -12 374 -12 408 0 374 -8 374 84 0 90 17 86 -392 86 -195 0 -358 -3 -361 -7z"/>
<path d="M2080 1101 c-14 -27 -13 -114 3 -134 11 -15 43 -17 292 -19 l280 -3 3 -25 c5 -55 6 -55 -300 -60 l-283 -5 -3 -169 c-2 -116 1 -173 9 -182 15 -18 199 -20 217 -2 8 8 12 45 12 100 0 85 1 88 25 94 34 8 74 -7 137 -53 29 -22 87 -64 128 -94 l75 -54 259 -2 c176 -2 264 1 273 9 9 7 13 44 13 135 0 102 3 125 15 130 11 4 48 -27 116 -96 55 -55 108 -101 118 -101 10 0 65 45 121 100 57 55 107 100 111 100 15 0 20 -38 18 -148 -1 -87 2 -116 12 -123 22 -14 193 -11 207 3 16 16 17 570 2 599 -9 17 -22 19 -99 19 l-89 0 -133 -139 c-107 -112 -136 -138 -150 -131 -9 5 -76 68 -148 140 l-131 130 -83 0 c-51 0 -88 -5 -95 -12 -9 -9 -12 -88 -12 -294 0 -173 -4 -285 -10 -289 -5 -3 -20 0 -33 7 -39 21 -217 152 -217 160 0 4 19 16 43 26 23 10 55 34 71 52 28 33 28 36 24 142 l-3 108 -35 35 c-59 58 -105 65 -450 65 -286 0 -300 -1 -310 -19z"/>
<path d="M4023 1108 c-4 -7 -8 -145 -9 -306 0 -274 1 -294 18 -303 10 -5 62 -8 116 -7 l97 3 3 290 c1 160 0 300 -3 313 -5 21 -10 22 -110 22 -72 0 -106 -4 -112 -12z"/>
<path d="M4337 1098 c-3 -13 -5 -150 -6 -304 0 -228 2 -284 13 -293 9 -8 48 -11 107 -9 l94 3 5 155 c5 144 6 155 24 152 10 -2 109 -72 220 -155 l201 -152 90 0 90 0 3 300 c2 273 1 301 -15 313 -10 7 -49 12 -100 12 -71 0 -84 -3 -93 -19 -5 -11 -10 -83 -10 -160 0 -117 -2 -141 -15 -141 -15 0 -77 42 -227 156 -51 39 -124 92 -162 117 -66 45 -71 47 -141 47 -67 0 -73 -2 -78 -22z"/>
<path d="M5603 1083 c-62 -82 -105 -153 -100 -166 6 -17 60 -27 144 -27 52 0 64 -3 77 -22 8 -12 13 -25 10 -30 -3 -4 -71 -8 -152 -8 -171 0 -145 15 -246 -140 -38 -58 -83 -122 -99 -143 -40 -52 -29 -58 108 -55 l110 3 42 65 c66 101 64 100 218 100 151 0 143 3 201 -89 20 -31 43 -62 52 -68 19 -15 238 -18 246 -4 6 9 -318 501 -381 579 l-34 42 -84 0 -83 0 -29 -37z"/>
<path d="M5930 1101 c0 -11 19 -48 43 -83 l43 -63 150 -5 149 -5 3 -217 c3 -257 -7 -240 140 -236 l97 3 5 218 c4 179 8 219 20 227 8 5 74 10 145 10 88 0 135 4 143 12 7 7 12 37 12 68 0 96 33 90 -493 90 -445 0 -457 0 -457 -19z"/>
<path d="M6956 1111 c-8 -13 -10 -137 -2 -150 5 -8 109 -11 346 -11 260 0 341 -3 347 -12 11 -19 13 -239 2 -260 -9 -16 -30 -18 -244 -18 l-235 0 -5 23 c-3 12 -6 56 -7 97 l-3 75 -94 5 c-51 3 -98 2 -104 -2 -14 -8 -19 -338 -5 -355 15 -18 898 -19 916 -1 17 17 17 589 0 606 -14 14 -903 18 -912 3z"/>
<path d="M1247 883 c-4 -3 -7 -35 -7 -69 0 -98 -11 -94 285 -94 154 0 256 4 260 10 11 17 16 84 9 123 l-6 37 -267 0 c-147 0 -271 -3 -274 -7z"/>
<path d="M1245 637 c-4 -13 -5 -47 -3 -77 2 -46 7 -56 26 -66 27 -13 510 -17 647 -6 l80 7 0 80 0 80 -372 3 -373 2 -5 -23z"/>
<path d="M1600 355 c-15 -19 -14 -213 2 -232 7 -9 44 -13 124 -13 126 0 134 4 134 72 0 75 -5 79 -83 76 -81 -3 -92 -15 -51 -54 l29 -25 -40 3 -40 3 -3 48 c-4 54 1 58 76 62 26 1 59 3 75 3 22 2 27 7 27 27 0 36 -27 45 -138 45 -76 0 -102 -4 -112 -15z"/>
<path d="M2562 358 c-17 -17 -17 -234 1 -245 16 -10 199 -17 232 -9 18 5 25 13 25 31 0 34 -27 45 -107 45 -47 0 -63 3 -53 10 8 5 23 7 33 4 30 -9 76 6 83 28 9 31 -21 51 -68 44 -20 -3 -44 -3 -53 0 -14 6 -14 8 1 25 14 15 31 19 85 19 71 0 84 7 74 40 -6 18 -15 20 -124 20 -78 0 -121 -4 -129 -12z"/>
<path d="M3527 356 c-15 -12 -17 -28 -15 -127 l3 -114 35 0 35 0 5 85 5 85 50 0 50 0 5 -84 c4 -72 8 -85 25 -91 11 -4 28 -3 38 2 15 7 17 24 17 117 0 140 -1 141 -136 141 -67 -1 -105 -5 -117 -14z"/>
<path d="M4486 354 c-3 -9 -6 -65 -6 -124 0 -98 2 -110 19 -120 27 -14 50 -3 57 27 8 29 -1 190 -11 216 -9 21 -51 23 -59 1z"/>
<path d="M6230 349 c-12 -22 -10 -123 3 -135 3 -4 21 -9 39 -13 29 -6 34 -12 43 -49 8 -40 11 -43 39 -40 25 2 31 9 39 38 10 39 22 50 54 50 29 0 43 28 43 87 0 59 -17 86 -51 81 -17 -2 -25 -10 -27 -28 -7 -68 -10 -71 -55 -68 -37 3 -43 7 -50 33 -15 48 -23 60 -45 63 -13 2 -25 -5 -32 -19z"/>
<path d="M5272 348 c-14 -14 -16 -96 -3 -117 5 -8 5 -26 -1 -43 -7 -21 -7 -37 1 -54 10 -23 14 -24 125 -24 95 0 115 3 120 16 11 28 6 98 -8 125 -12 23 -12 29 2 43 13 12 13 20 4 41 -11 25 -14 25 -120 25 -71 0 -112 -4 -120 -12z m173 -68 c4 -6 -13 -10 -44 -10 -28 0 -51 5 -51 10 0 6 20 10 44 10 25 0 48 -4 51 -10z m-7 -92 c-3 -8 -23 -13 -53 -13 -30 0 -50 5 -52 13 -4 9 11 12 52 12 41 0 56 -3 53 -12z"/>
<path d="M7203 353 c-17 -6 -17 -115 -1 -131 9 -9 9 -15 0 -24 -16 -16 -15 -63 2 -77 9 -8 52 -11 127 -9 l114 3 3 63 c2 39 -2 69 -9 78 -9 11 -9 18 -1 26 15 15 15 51 0 66 -12 12 -208 16 -235 5z m177 -73 c11 -7 0 -10 -37 -10 -29 0 -53 5 -53 10 0 13 70 13 90 0z m-15 -80 c0 -11 -13 -16 -44 -18 -54 -4 -72 3 -65 23 9 22 109 17 109 -5z"/>
</g>
</svg>
